# xmcd
#
# Track frame offsets:
#	150
#	13908
#	32175
#	49912
#	70449
#	89667
#	108392
#	127621
#	144116
#	164110
#	182336
#
# Disc length: 2658 seconds
#
# Revision: 0
# Processed by: cddbd v1.5.2PL0 Copyright (c) Steve Scherf et al.
# Submitted via: dBpowerAMP V4.0
#
DISCID=960a600b
DTITLE=David Brinston - Here I Go Again
DYEAR=2007
DGENRE=Beach
TTITLE0=Here I Go Again
TTITLE1=Let me hit it one more time
TTITLE2=Back it up and put it here
TTITLE3=after party
TTITLE4=Give me all your love
TTITLE5=Love's always gonna be around
TTITLE6=Ain't it funny
TTITLE7=Too many women
TTITLE8=Come back and do it right
TTITLE9=work that thing
TTITLE10=You took that dog in me
EXTD=
EXTT0=
EXTT1=
EXTT2=
EXTT3=
EXTT4=
EXTT5=
EXTT6=
EXTT7=
EXTT8=
EXTT9=
EXTT10=
PLAYORDER=
